<svg width="3.8469mm" height="4.7625mm" version="1.1" viewBox="0 0 3.8469 4.7625" xmlns="http://www.w3.org/2000/svg" data-v-7b8c874d=""><g transform="translate(-64.345 -143.35)" data-v-7b8c874d=""><path d="m65.3 148.04c-0.28391-0.17313-0.67141-0.76332-0.84045-1.2801-0.08795-0.26886-0.11025-0.42084-0.11353-0.77372-5e-3 -0.53416 0.07013-0.78453 0.32071-1.0692 0.32908-0.37386 0.80475-0.48983 1.2754-0.31094 0.28741 0.10923 0.40289 0.10558 0.79215-0.0251 0.25755-0.0864 0.3669-0.10301 0.53413-0.0809 0.27892 0.0369 0.51512 0.14539 0.6838 0.31406l0.138 0.138-0.15036 0.12394c-0.35848 0.29549-0.46412 0.84523-0.24639 1.2822 0.09783 0.19631 0.33073 0.42321 0.48834 0.47574 0.07682 0.0256-0.27148 0.68647-0.49609 0.94128-0.31615 0.35864-0.47304 0.40634-0.86417 0.26274-0.38534-0.14149-0.49243-0.14492-0.83466-0.0268-0.37222 0.12848-0.51369 0.13441-0.68687 0.0288zm0.95956-3.6652c-0.04406-0.11481 0.09887-0.49259 0.25567-0.67578 0.14967-0.17485 0.45436-0.3477 0.61294-0.3477 0.08074 0 0.08756 0.0177 0.06932 0.17944-0.0488 0.43295-0.36807 0.79774-0.77487 0.88535-0.10672 0.0229-0.14178 0.0141-0.16305-0.0413z" data-v-7b8c874d=""></path></g></svg>